<mxfile host="app.diagrams.net" modified="2023-10-13T05:12:58.337Z" agent="Mozilla/5.0 (Windows NT 10.0; Win64; x64; rv:109.0) Gecko/20100101 Firefox/118.0" etag="W6qAt5LaUhaHmuv2Phe0" version="22.0.4" type="device">
  <diagram id="C5RBs43oDa-KdzZeNtuy" name="Page-1">
    <mxGraphModel dx="1500" dy="824" grid="1" gridSize="10" guides="1" tooltips="1" connect="1" arrows="1" fold="1" page="1" pageScale="1" pageWidth="827" pageHeight="1169" math="0" shadow="0">
      <root>
        <mxCell id="WIyWlLk6GJQsqaUBKTNV-0" />
        <mxCell id="WIyWlLk6GJQsqaUBKTNV-1" parent="WIyWlLk6GJQsqaUBKTNV-0" />
        <mxCell id="WIyWlLk6GJQsqaUBKTNV-2" value="" style="rounded=0;html=1;jettySize=auto;orthogonalLoop=1;fontSize=11;endArrow=block;endFill=0;endSize=8;strokeWidth=1;shadow=0;labelBackgroundColor=none;edgeStyle=orthogonalEdgeStyle;" parent="WIyWlLk6GJQsqaUBKTNV-1" edge="1">
          <mxGeometry relative="1" as="geometry">
            <mxPoint x="359" y="165" as="sourcePoint" />
            <mxPoint x="359" y="215" as="targetPoint" />
          </mxGeometry>
        </mxCell>
        <mxCell id="-yrRGvBdQ-lyiahP7ydy-1" style="edgeStyle=orthogonalEdgeStyle;rounded=0;orthogonalLoop=1;jettySize=auto;html=1;exitX=0.5;exitY=1;exitDx=0;exitDy=0;entryX=0.5;entryY=0;entryDx=0;entryDy=0;" edge="1" parent="WIyWlLk6GJQsqaUBKTNV-1" source="WIyWlLk6GJQsqaUBKTNV-10" target="-yrRGvBdQ-lyiahP7ydy-0">
          <mxGeometry relative="1" as="geometry" />
        </mxCell>
        <mxCell id="-yrRGvBdQ-lyiahP7ydy-4" value="yes" style="edgeLabel;html=1;align=center;verticalAlign=middle;resizable=0;points=[];" vertex="1" connectable="0" parent="-yrRGvBdQ-lyiahP7ydy-1">
          <mxGeometry x="-0.16" relative="1" as="geometry">
            <mxPoint as="offset" />
          </mxGeometry>
        </mxCell>
        <mxCell id="-yrRGvBdQ-lyiahP7ydy-3" style="edgeStyle=orthogonalEdgeStyle;rounded=0;orthogonalLoop=1;jettySize=auto;html=1;exitX=1;exitY=0.5;exitDx=0;exitDy=0;" edge="1" parent="WIyWlLk6GJQsqaUBKTNV-1" source="WIyWlLk6GJQsqaUBKTNV-10" target="-yrRGvBdQ-lyiahP7ydy-2">
          <mxGeometry relative="1" as="geometry" />
        </mxCell>
        <mxCell id="-yrRGvBdQ-lyiahP7ydy-5" value="no" style="edgeLabel;html=1;align=center;verticalAlign=middle;resizable=0;points=[];" vertex="1" connectable="0" parent="-yrRGvBdQ-lyiahP7ydy-3">
          <mxGeometry x="0.075" y="1" relative="1" as="geometry">
            <mxPoint as="offset" />
          </mxGeometry>
        </mxCell>
        <mxCell id="WIyWlLk6GJQsqaUBKTNV-10" value="&amp;nbsp;If Liter &amp;gt; 4000" style="rhombus;whiteSpace=wrap;html=1;shadow=0;fontFamily=Helvetica;fontSize=12;align=center;strokeWidth=1;spacing=6;spacingTop=-4;" parent="WIyWlLk6GJQsqaUBKTNV-1" vertex="1">
          <mxGeometry x="309" y="435" width="100" height="80" as="geometry" />
        </mxCell>
        <mxCell id="pdhIdZVKQeCqO6ZJQGVf-0" value="Start" style="ellipse;whiteSpace=wrap;html=1;" parent="WIyWlLk6GJQsqaUBKTNV-1" vertex="1">
          <mxGeometry x="309" y="115" width="100" height="50" as="geometry" />
        </mxCell>
        <mxCell id="pdhIdZVKQeCqO6ZJQGVf-6" value="" style="edgeStyle=orthogonalEdgeStyle;rounded=0;orthogonalLoop=1;jettySize=auto;html=1;" parent="WIyWlLk6GJQsqaUBKTNV-1" source="pdhIdZVKQeCqO6ZJQGVf-1" edge="1">
          <mxGeometry relative="1" as="geometry">
            <mxPoint x="359" y="315" as="targetPoint" />
            <Array as="points">
              <mxPoint x="359" y="295" />
              <mxPoint x="359" y="295" />
            </Array>
          </mxGeometry>
        </mxCell>
        <mxCell id="pdhIdZVKQeCqO6ZJQGVf-1" value="Input Litre" style="shape=parallelogram;perimeter=parallelogramPerimeter;whiteSpace=wrap;html=1;fixedSize=1;" parent="WIyWlLk6GJQsqaUBKTNV-1" vertex="1">
          <mxGeometry x="299" y="215" width="120" height="60" as="geometry" />
        </mxCell>
        <mxCell id="pdhIdZVKQeCqO6ZJQGVf-8" value="" style="edgeStyle=orthogonalEdgeStyle;rounded=0;orthogonalLoop=1;jettySize=auto;html=1;" parent="WIyWlLk6GJQsqaUBKTNV-1" source="pdhIdZVKQeCqO6ZJQGVf-7" target="WIyWlLk6GJQsqaUBKTNV-10" edge="1">
          <mxGeometry relative="1" as="geometry" />
        </mxCell>
        <mxCell id="pdhIdZVKQeCqO6ZJQGVf-7" value="gas_price = Liter x 1.07&amp;nbsp;" style="rounded=0;whiteSpace=wrap;html=1;" parent="WIyWlLk6GJQsqaUBKTNV-1" vertex="1">
          <mxGeometry x="299" y="315" width="120" height="60" as="geometry" />
        </mxCell>
        <mxCell id="-yrRGvBdQ-lyiahP7ydy-7" style="edgeStyle=orthogonalEdgeStyle;rounded=0;orthogonalLoop=1;jettySize=auto;html=1;exitX=0.5;exitY=1;exitDx=0;exitDy=0;entryX=0.5;entryY=0;entryDx=0;entryDy=0;" edge="1" parent="WIyWlLk6GJQsqaUBKTNV-1" source="-yrRGvBdQ-lyiahP7ydy-0" target="-yrRGvBdQ-lyiahP7ydy-6">
          <mxGeometry relative="1" as="geometry" />
        </mxCell>
        <mxCell id="-yrRGvBdQ-lyiahP7ydy-0" value="Price after would be 10% discount off " style="rounded=0;whiteSpace=wrap;html=1;" vertex="1" parent="WIyWlLk6GJQsqaUBKTNV-1">
          <mxGeometry x="299" y="565" width="120" height="60" as="geometry" />
        </mxCell>
        <mxCell id="-yrRGvBdQ-lyiahP7ydy-8" style="edgeStyle=orthogonalEdgeStyle;rounded=0;orthogonalLoop=1;jettySize=auto;html=1;exitX=0.5;exitY=1;exitDx=0;exitDy=0;entryX=1;entryY=0.5;entryDx=0;entryDy=0;" edge="1" parent="WIyWlLk6GJQsqaUBKTNV-1" source="-yrRGvBdQ-lyiahP7ydy-2" target="-yrRGvBdQ-lyiahP7ydy-6">
          <mxGeometry relative="1" as="geometry" />
        </mxCell>
        <mxCell id="-yrRGvBdQ-lyiahP7ydy-2" value="Price after is same with price before" style="rounded=0;whiteSpace=wrap;html=1;" vertex="1" parent="WIyWlLk6GJQsqaUBKTNV-1">
          <mxGeometry x="499" y="565" width="120" height="60" as="geometry" />
        </mxCell>
        <mxCell id="-yrRGvBdQ-lyiahP7ydy-6" value="End" style="ellipse;whiteSpace=wrap;html=1;" vertex="1" parent="WIyWlLk6GJQsqaUBKTNV-1">
          <mxGeometry x="299" y="685" width="120" height="80" as="geometry" />
        </mxCell>
        <mxCell id="-yrRGvBdQ-lyiahP7ydy-10" value="Calculate Gas Price" style="text;html=1;align=center;verticalAlign=middle;resizable=0;points=[];autosize=1;strokeColor=none;fillColor=none;" vertex="1" parent="WIyWlLk6GJQsqaUBKTNV-1">
          <mxGeometry x="294" y="60" width="130" height="30" as="geometry" />
        </mxCell>
      </root>
    </mxGraphModel>
  </diagram>
</mxfile>
